<?xml version="1.0" standalone="no"?>
<!DOCTYPE svg PUBLIC "-//W3C//DTD SVG 20010904//EN"
 "http://www.w3.org/TR/2001/REC-SVG-20010904/DTD/svg10.dtd">
<svg version="1.0" xmlns="http://www.w3.org/2000/svg"
 width="800.000000pt" height="800.000000pt" viewBox="0 0 800.000000 800.000000"
 preserveAspectRatio="xMidYMid meet">

<g transform="translate(0.000000,800.000000) scale(0.100000,-0.100000)"
fill="#034694" stroke="none">
<path d="M3368 6518 c-3 -7 12 -449 33 -983 21 -533 47 -1211 58 -1505 12
-294 28 -719 37 -945 8 -225 17 -420 20 -432 l4 -23 495 0 495 0 4 23 c3 12 7
92 11 177 3 85 39 949 80 1919 41 970 72 1768 69 1772 -3 5 -297 9 -654 9
-509 0 -649 -3 -652 -12z"/>
<path d="M3542 1888 l3 -503 460 -3 c253 -1 470 0 483 3 l22 5 -2 498 -3 497
-483 3 -482 2 2 -502z"/>
</g>
</svg>
